<?xml version="1.0" encoding="utf-8"?>
<!-- Generator: Adobe Illustrator 21.0.2, SVG Export Plug-In . SVG Version: 6.00 Build 0)  -->
<svg version="1.2" baseProfile="tiny" id="레이어_1"
	 xmlns="http://www.w3.org/2000/svg" xmlns:xlink="http://www.w3.org/1999/xlink" x="0px" y="0px" width="30px" height="30px"
	 viewBox="0 0 30 30" xml:space="preserve">
<path fill="#FFFFFF" d="M30,26.7c0,0.5-0.5,1-1,1H18c-0.5,0-1-0.5-1-1v-8c0-0.5,0.5-1,1-1h11c0.5,0,1,0.5,1,1V26.7z"/>
<path fill="#FFFFFF" d="M13,26.7c0,0.5-0.4,1-1,1H1c-0.6,0-1-0.5-1-1v-8c0-0.5,0.4-1,1-1h11c0.6,0,1,0.5,1,1V26.7z"/>
<path fill="#FFFFFF" d="M30,12.7c0,0.6-0.5,1-1,1H18c-0.5,0-1-0.4-1-1v-8c0-0.6,0.5-1,1-1h11c0.5,0,1,0.4,1,1V12.7z"/>
<path fill="#FFFFFF" d="M13,12.7c0,0.6-0.4,1-1,1H1c-0.6,0-1-0.4-1-1v-8c0-0.6,0.4-1,1-1h11c0.6,0,1,0.4,1,1V12.7z"/>
<g>
	<path fill="#FFFFFF" d="M61.3,26.5c0,0.5-0.5,1-1,1h-5.9c-0.5,0-1-0.5-1-1v-3.9c0-0.5,0.5-1,1-1h5.9c0.5,0,1,0.5,1,1V26.5z"/>
	<path fill="#FFFFFF" d="M50.3,26.5c0,0.5-0.4,1-1,1h-5.9c-0.6,0-1-0.5-1-1v-3.9c0-0.5,0.4-1,1-1h5.9c0.6,0,1,0.5,1,1V26.5z"/>
	<path fill="#FFFFFF" d="M72.4,26.5c0,0.5-0.4,1-1,1h-5.9c-0.6,0-1-0.5-1-1v-3.9c0-0.5,0.4-1,1-1h5.9c0.6,0,1,0.5,1,1V26.5z"/>
	<path fill="#FFFFFF" d="M72.4,17c0,0.5-0.4,1-1,1h-28c-0.6,0-1-0.5-1-1V3.5c0-0.5,0.4-1,1-1h28c0.6,0,1,0.5,1,1V17z"/>
</g>
</svg>
